<?xml version="1.0" encoding="UTF-8" standalone="no"?>
<svg
   xmlns:dc="http://purl.org/dc/elements/1.1/"
   xmlns:cc="http://creativecommons.org/ns#"
   xmlns:rdf="http://www.w3.org/1999/02/22-rdf-syntax-ns#"
   xmlns:svg="http://www.w3.org/2000/svg"
   xmlns="http://www.w3.org/2000/svg"
   xmlns:sodipodi="http://sodipodi.sourceforge.net/DTD/sodipodi-0.dtd"
   xmlns:inkscape="http://www.inkscape.org/namespaces/inkscape"
   width="16"
   height="16"
   version="1.1"
   id="svg4"
   sodipodi:docname="dpad.svg"
   inkscape:version="1.0.1 (3bc2e81, 2020-09-07)">
  <metadata
     id="metadata10">
    <rdf:RDF>
      <cc:Work
         rdf:about="">
        <dc:format>image/svg+xml</dc:format>
        <dc:type
           rdf:resource="http://purl.org/dc/dcmitype/StillImage" />
      </cc:Work>
    </rdf:RDF>
  </metadata>
  <defs
     id="defs8" />
  <sodipodi:namedview
     pagecolor="#ffffff"
     bordercolor="#666666"
     borderopacity="1"
     objecttolerance="10"
     gridtolerance="10"
     guidetolerance="10"
     inkscape:pageopacity="0"
     inkscape:pageshadow="2"
     inkscape:window-width="640"
     inkscape:window-height="480"
     id="namedview6"
     showgrid="false"
     inkscape:zoom="55.375"
     inkscape:cx="8"
     inkscape:cy="3.7042005"
     inkscape:current-layer="svg4" />
  <path
     style="fill:#444444;stroke-width:1"
     d="M 7,1 C 6.45,1 6,1.44 6,2 V 5 L 8,7 9.9999999,5 V 2 C 9.9999999,1.44 9.5499997,1 9,1 Z M 2,6 C 1.45,6 1,6.45 1,7 v 2 c 0,0.5499997 0.45,1.01 1,0.9999999 H 5 L 7,8 5,6 Z m 9,0 -2,2 2,1.9999999 h 3 c 0.55,0 1,-0.4500002 1,-0.9999999 V 7 C 15,6.45 14.55,6 14,6 Z M 8,9 6,11 v 3 c 0,0.55 0.45,1 1,1 h 2 c 0.5499997,0 0.9999999,-0.45 0.9999999,-1 v -3 z"
     id="path2" />
</svg>
