<?xml version="1.0" encoding="UTF-8" standalone="no"?>
<svg
   xmlns:dc="http://purl.org/dc/elements/1.1/"
   xmlns:cc="http://creativecommons.org/ns#"
   xmlns:rdf="http://www.w3.org/1999/02/22-rdf-syntax-ns#"
   xmlns:svg="http://www.w3.org/2000/svg"
   xmlns="http://www.w3.org/2000/svg"
   xmlns:sodipodi="http://sodipodi.sourceforge.net/DTD/sodipodi-0.dtd"
   xmlns:inkscape="http://www.inkscape.org/namespaces/inkscape"
   width="16"
   height="16"
   version="1.1"
   id="svg4"
   sodipodi:docname="fan.svg"
   inkscape:version="1.0.1 (3bc2e81, 2020-09-07)">
  <metadata
     id="metadata10">
    <rdf:RDF>
      <cc:Work
         rdf:about="">
        <dc:format>image/svg+xml</dc:format>
        <dc:type
           rdf:resource="http://purl.org/dc/dcmitype/StillImage" />
      </cc:Work>
    </rdf:RDF>
  </metadata>
  <defs
     id="defs8" />
  <sodipodi:namedview
     pagecolor="#ffffff"
     bordercolor="#666666"
     borderopacity="1"
     objecttolerance="10"
     gridtolerance="10"
     guidetolerance="10"
     inkscape:pageopacity="0"
     inkscape:pageshadow="2"
     inkscape:window-width="640"
     inkscape:window-height="480"
     id="namedview6"
     showgrid="false"
     inkscape:zoom="42"
     inkscape:cx="8"
     inkscape:cy="8"
     inkscape:current-layer="svg4" />
  <path
     style="fill:#5c616c;stroke-width:0.9375"
     d="M 1.4375,0.5 C 0.918125,0.5 0.5,0.918125 0.5,1.4375 v 13.125 C 0.5,15.081875 0.918125,15.5 1.4375,15.5 h 13.125 C 15.081875,15.5 15.5,15.081875 15.5,14.5625 V 1.4375 C 15.5,0.918125 15.081875,0.5 14.5625,0.5 Z M 1.90625,1.4375 A 0.46875,0.46875 0 0 1 2.375,1.90625 0.46875,0.46875 0 0 1 1.90625,2.375 0.46875,0.46875 0 0 1 1.4375,1.90625 0.46875,0.46875 0 0 1 1.90625,1.4375 Z M 8,1.4375 A 6.5625,6.5625 0 0 1 14.5625,8 6.5625,6.5625 0 0 1 8,14.5625 6.5625,6.5625 0 0 1 1.4375,8 6.5625,6.5625 0 0 1 8,1.4375 Z m 6.09375,0 A 0.46875,0.46875 0 0 1 14.5625,1.90625 0.46875,0.46875 0 0 1 14.09375,2.375 0.46875,0.46875 0 0 1 13.625,1.90625 0.46875,0.46875 0 0 1 14.09375,1.4375 Z M 8.939375,2.47025 C 8.4208438,2.4692187 8.0000937,2.8892188 8,3.40775 V 5.1875 a 2.8125,2.8125 0 0 1 2.1975,1.0583437 C 10.937187,6.086 11.561562,5.9387188 12.193438,5.7899375 13.031563,5.5923125 12.693125,4.8622813 12.3575,4.4495938 11.539063,3.4430938 10.397187,2.7494375 9.126125,2.4885313 9.064625,2.4761562 9.002,2.4701563 8.939375,2.47025 Z M 5.2003437,3.2869063 C 4.9415,3.3085625 4.6559375,3.4764688 4.4495938,3.6439063 3.4430938,4.4629063 2.7494375,5.6046875 2.4885313,6.87575 2.4763437,6.937625 2.47025,6.9997812 2.47025,7.0625 2.4693125,7.5810312 2.8893125,8.0017812 3.40775,8.001875 H 5.1875 A 2.8125,2.8125 0 0 1 6.2458437,5.8045625 C 6.086,5.0644062 5.9387188,4.440125 5.7899375,3.8087188 5.6910312,3.3895625 5.4590937,3.2651563 5.2003437,3.2869063 Z M 8,6.125 A 1.875,1.875 0 0 0 6.125,8 1.875,1.875 0 0 0 8,9.875 1.875,1.875 0 0 0 9.875,8 1.875,1.875 0 0 0 8,6.125 Z m 2.810625,1.873125 a 2.8125,2.8125 0 0 1 -1.0583438,2.1975 c 0.1602188,0.739688 0.3074068,1.364063 0.4555308,1.995938 0.197813,0.838125 0.928126,0.499687 1.340626,0.164062 1.006874,-0.818437 1.700625,-1.960313 1.96125,-3.231375 C 13.521875,9.062375 13.528438,9.0002188 13.5275,8.9375 13.528438,8.4189687 13.109375,7.9982188 12.59,7.998125 Z M 5.8009062,9.7559375 C 5.06075,9.91625 4.4364688,10.063437 3.8050625,10.211562 2.96675,10.409375 3.305375,11.139688 3.64025,11.552188 c 0.819,1.006875 1.9607812,1.700624 3.2318438,1.96125 0.061875,0.01219 0.1240312,0.01781 0.18675,0.01781 0.5185312,9.37e-4 0.9391874,-0.419063 0.9392812,-0.9375 V 10.814375 A 2.8125,2.8125 0 0 1 5.8009062,9.7559375 Z M 1.90625,13.625 A 0.46875,0.46875 0 0 1 2.375,14.09375 0.46875,0.46875 0 0 1 1.90625,14.5625 0.46875,0.46875 0 0 1 1.4375,14.09375 0.46875,0.46875 0 0 1 1.90625,13.625 Z m 12.1875,0 A 0.46875,0.46875 0 0 1 14.5625,14.09375 0.46875,0.46875 0 0 1 14.09375,14.5625 0.46875,0.46875 0 0 1 13.625,14.09375 0.46875,0.46875 0 0 1 14.09375,13.625 Z"
     id="path2" />
</svg>
