<?xml version="1.0" encoding="UTF-8" standalone="no"?>
<svg
   xmlns:dc="http://purl.org/dc/elements/1.1/"
   xmlns:cc="http://creativecommons.org/ns#"
   xmlns:rdf="http://www.w3.org/1999/02/22-rdf-syntax-ns#"
   xmlns:svg="http://www.w3.org/2000/svg"
   xmlns="http://www.w3.org/2000/svg"
   xmlns:sodipodi="http://sodipodi.sourceforge.net/DTD/sodipodi-0.dtd"
   xmlns:inkscape="http://www.inkscape.org/namespaces/inkscape"
   height="16"
   width="16"
   version="1.1"
   id="svg6"
   sodipodi:docname="nightlight.svg"
   inkscape:version="1.0.1 (3bc2e81, 2020-09-07)">
  <metadata
     id="metadata12">
    <rdf:RDF>
      <cc:Work
         rdf:about="">
        <dc:format>image/svg+xml</dc:format>
        <dc:type
           rdf:resource="http://purl.org/dc/dcmitype/StillImage" />
      </cc:Work>
    </rdf:RDF>
  </metadata>
  <defs
     id="defs10" />
  <sodipodi:namedview
     pagecolor="#ffffff"
     bordercolor="#666666"
     borderopacity="1"
     objecttolerance="10"
     gridtolerance="10"
     guidetolerance="10"
     inkscape:pageopacity="0"
     inkscape:pageshadow="2"
     inkscape:window-width="640"
     inkscape:window-height="480"
     id="namedview8"
     showgrid="false"
     inkscape:zoom="19.578019"
     inkscape:cx="7.7436266"
     inkscape:cy="15.627603"
     inkscape:current-layer="svg6" />
  <g
     transform="translate(-1293 127)"
     id="g4">
    <path
       d="M1301-124a5 5 0 1 0 0 10 5 5 0 0 0 0-10zm-1.049 1a3.589 3.589 0 0 0-.691 3.195 3.596 3.596 0 0 0 4.402 2.543c.49-.133.946-.37 1.338-.691a4.084 4.084 0 0 1-2.861 2.814 4.081 4.081 0 0 1-2.188-7.861zM1301.5-127h-1v2h1zm4.803 1.99l-1.414 1.414.707.707 1.415-1.414zm-10.606 0l-.707.707 1.414 1.414.707-.707zM1309-119.5h-2v1h2zm-14 0h-2v1h2zm10.596 4.389l-.707.707 1.414 1.414.707-.707zm-9.192 0l-1.414 1.414.707.707 1.414-1.414zm5.096 2.11h-1v2h1z"
       fill="gray"
       id="path2" />
  </g>
</svg>
