<?xml version="1.0" encoding="UTF-8" standalone="no"?>
<svg
   xmlns:dc="http://purl.org/dc/elements/1.1/"
   xmlns:cc="http://creativecommons.org/ns#"
   xmlns:rdf="http://www.w3.org/1999/02/22-rdf-syntax-ns#"
   xmlns:svg="http://www.w3.org/2000/svg"
   xmlns="http://www.w3.org/2000/svg"
   xmlns:sodipodi="http://sodipodi.sourceforge.net/DTD/sodipodi-0.dtd"
   xmlns:inkscape="http://www.inkscape.org/namespaces/inkscape"
   style="isolation:isolate"
   viewBox="0 0 16 16"
   width="16"
   height="16"
   version="1.1"
   id="svg4"
   sodipodi:docname="plugbig.svg"
   inkscape:version="1.0.1 (3bc2e81, 2020-09-07)">
  <metadata
     id="metadata10">
    <rdf:RDF>
      <cc:Work
         rdf:about="">
        <dc:format>image/svg+xml</dc:format>
        <dc:type
           rdf:resource="http://purl.org/dc/dcmitype/StillImage" />
      </cc:Work>
    </rdf:RDF>
  </metadata>
  <defs
     id="defs8" />
  <sodipodi:namedview
     pagecolor="#ffffff"
     bordercolor="#666666"
     borderopacity="1"
     objecttolerance="10"
     gridtolerance="10"
     guidetolerance="10"
     inkscape:pageopacity="0"
     inkscape:pageshadow="2"
     inkscape:window-width="640"
     inkscape:window-height="480"
     id="namedview6"
     showgrid="false"
     inkscape:zoom="19.578019"
     inkscape:cx="1.7577856"
     inkscape:cy="4.7947284"
     inkscape:current-layer="svg4" />
  <path
     d="M 8,2.554875 C 4.9935,2.554875 2.554875,4.9935 2.554875,8 2.554875,11.0065 4.9935,13.445125 8,13.445125 11.0065,13.445125 13.445125,11.0065 13.445125,8 13.445125,4.9935 11.0065,2.554875 8,2.554875 Z M 8,1 c 3.86575,0 7,3.13425 7,7 0,3.86575 -3.13425,7 -7,7 C 4.13425,15 1,11.86575 1,8 1,4.13425 4.13425,1 8,1 Z M 4.92525,8 C 4.92525,6.3025 6.3025,4.92525 8,4.92525 9.6975,4.92525 11.07475,6.3025 11.07475,8 11.07475,9.6975 9.6975,11.07475 8,11.07475 6.3025,11.07475 4.92525,9.6975 4.92525,8 Z"
     fill-rule="evenodd"
     fill="#5c616c"
     id="path2"
     style="stroke-width:0.875" />
</svg>
