<?xml version="1.0" encoding="UTF-8" standalone="no"?>
<svg
   xmlns:dc="http://purl.org/dc/elements/1.1/"
   xmlns:cc="http://creativecommons.org/ns#"
   xmlns:rdf="http://www.w3.org/1999/02/22-rdf-syntax-ns#"
   xmlns:svg="http://www.w3.org/2000/svg"
   xmlns="http://www.w3.org/2000/svg"
   xmlns:sodipodi="http://sodipodi.sourceforge.net/DTD/sodipodi-0.dtd"
   xmlns:inkscape="http://www.inkscape.org/namespaces/inkscape"
   viewBox="0 0 16 16"
   version="1.1"
   id="svg6"
   sodipodi:docname="system.svg"
   width="16"
   height="16"
   inkscape:version="0.92.5 (2060ec1f9f, 2020-04-08)">
  <metadata
     id="metadata10">
    <rdf:RDF>
      <cc:Work
         rdf:about="">
        <dc:format>image/svg+xml</dc:format>
        <dc:type
           rdf:resource="http://purl.org/dc/dcmitype/StillImage" />
        <dc:title></dc:title>
      </cc:Work>
    </rdf:RDF>
  </metadata>
  <sodipodi:namedview
     pagecolor="#ffffff"
     bordercolor="#666666"
     borderopacity="1"
     objecttolerance="10"
     gridtolerance="10"
     guidetolerance="10"
     inkscape:pageopacity="0"
     inkscape:pageshadow="2"
     inkscape:window-width="640"
     inkscape:window-height="480"
     id="namedview8"
     showgrid="false"
     fit-margin-top="0"
     fit-margin-left="0"
     fit-margin-right="0"
     fit-margin-bottom="0"
     inkscape:zoom="10.727273"
     inkscape:cx="-14.186441"
     inkscape:cy="8"
     inkscape:current-layer="svg6" />
  <defs
     id="defs3051">
    <style
       type="text/css"
       id="current-color-scheme">
      .ColorScheme-Text {
        color:#232629;
      }
      </style>
  </defs>
  <path
     style="color:#232629;fill:currentColor;fill-opacity:1;stroke:none;stroke-width:0.9375"
     d="M 3.3125,0.5 V 2.375 H 2.375 V 3.3125 H 0.5 V 4.25 H 2.375 V 6.125 H 0.5 v 0.9375 h 1.875 v 1.875 H 0.5 V 9.875 H 2.375 V 11.75 H 0.5 v 0.9375 H 2.375 V 13.625 H 3.3125 V 15.5 H 4.25 V 13.625 H 6.125 V 15.5 h 0.9375 v -1.875 h 1.875 V 15.5 H 9.875 V 13.625 H 11.75 V 15.5 h 0.9375 V 13.625 H 13.625 V 12.6875 H 15.5 V 11.75 H 13.625 V 9.875 H 15.5 V 8.9375 H 13.625 V 7.0625 H 15.5 V 6.125 H 13.625 V 4.25 H 15.5 V 3.3125 H 13.625 V 2.375 H 12.6875 V 0.5 H 11.75 V 2.375 H 9.875 V 0.5 H 8.9375 V 2.375 H 7.0625 V 0.5 H 6.125 V 2.375 H 4.25 V 0.5 Z"
     class="ColorScheme-Text"
     id="path4"
     inkscape:connector-curvature="0" />
</svg>
