<?xml version="1.0" encoding="UTF-8" standalone="no"?>
<svg
   xmlns:dc="http://purl.org/dc/elements/1.1/"
   xmlns:cc="http://creativecommons.org/ns#"
   xmlns:rdf="http://www.w3.org/1999/02/22-rdf-syntax-ns#"
   xmlns:svg="http://www.w3.org/2000/svg"
   xmlns="http://www.w3.org/2000/svg"
   xmlns:xlink="http://www.w3.org/1999/xlink"
   xmlns:sodipodi="http://sodipodi.sourceforge.net/DTD/sodipodi-0.dtd"
   xmlns:inkscape="http://www.inkscape.org/namespaces/inkscape"
   width="48"
   height="48"
   version="1.1"
   id="svg11"
   sodipodi:docname="close.svg"
   inkscape:version="0.92.4 (5da689c313, 2019-01-14)">
  <metadata
     id="metadata15">
    <rdf:RDF>
      <cc:Work
         rdf:about="">
        <dc:format>image/svg+xml</dc:format>
        <dc:type
           rdf:resource="http://purl.org/dc/dcmitype/StillImage" />
        <dc:title></dc:title>
      </cc:Work>
    </rdf:RDF>
  </metadata>
  <sodipodi:namedview
     pagecolor="#ffffff"
     bordercolor="#666666"
     borderopacity="1"
     objecttolerance="10"
     gridtolerance="10"
     guidetolerance="10"
     inkscape:pageopacity="0"
     inkscape:pageshadow="2"
     inkscape:window-width="640"
     inkscape:window-height="480"
     id="namedview13"
     showgrid="false"
     inkscape:zoom="6.9532167"
     inkscape:cx="21.398569"
     inkscape:cy="26.628674"
     inkscape:current-layer="svg11" />
  <defs
     id="acyl-settings">
    <linearGradient
       id="acyl-gradient"
       x1="0%"
       x2="0%"
       y1="0%"
       y2="100%">
      <stop
         offset="100%"
         style="stop-color:#A0A0A0;stop-opacity:1.000000"
         id="stop2" />
    </linearGradient>
    <g
       id="acyl-filter" />
    <g
       id="acyl-drawing">
      <path
         d="m 8.0159334,6.5028889 c -1.92474,-0.097668 -3.2288702,2.3025855 -2.0924418,3.8476821 1.6663622,1.813627 3.5006464,3.494238 5.2311044,5.251564 l 8.945186,8.891262 C 15.424563,29.13543 10.739413,33.770838 6.0804246,38.428243 4.7886562,39.856658 5.8260191,42.391895 7.754377,42.483907 9.3650931,42.671264 10.267342,41.179631 11.311529,40.248091 15.372543,36.187693 19.4444,32.091514 23.5,28.029104 c 4.0556,4.06241 8.127457,8.158589 12.188471,12.218987 1.044188,0.93154 1.946436,2.423173 3.557151,2.235816 1.928358,-0.09202 2.965722,-2.627249 1.673954,-4.055664 C 36.260587,33.770838 31.575439,29.13543 26.900218,24.493397 l 8.945186,-8.891262 c 1.730457,-1.757326 3.564742,-3.437937 5.231105,-5.251564 C 42.212937,8.8054744 40.908803,6.4052209 38.984066,6.5028889 38.411713,6.5012989 37.858114,6.7138885 37.414736,7.0748425 32.77079,11.66596 28.126121,16.295961 23.5,20.905694 18.873879,16.295961 14.22921,11.66596 9.5852634,7.0748425 9.1418858,6.7138885 8.5882884,6.5012905 8.0159334,6.5028889 z"
         id="path-main" />
    </g>
  </defs>
  <g
     id="acyl-visual"
     style="fill:#4d4d4d">
    <use
       id="visible1"
       style="fill:#4d4d4d"
       xlink:href="#acyl-drawing" />
  </g>
</svg>
