<?xml version="1.0" encoding="UTF-8" standalone="no"?>
<svg
   xmlns:dc="http://purl.org/dc/elements/1.1/"
   xmlns:cc="http://creativecommons.org/ns#"
   xmlns:rdf="http://www.w3.org/1999/02/22-rdf-syntax-ns#"
   xmlns:svg="http://www.w3.org/2000/svg"
   xmlns="http://www.w3.org/2000/svg"
   xmlns:xlink="http://www.w3.org/1999/xlink"
   xmlns:sodipodi="http://sodipodi.sourceforge.net/DTD/sodipodi-0.dtd"
   xmlns:inkscape="http://www.inkscape.org/namespaces/inkscape"
   width="48"
   height="48"
   version="1.1"
   id="svg11"
   sodipodi:docname="unmaximize.svg"
   inkscape:version="0.92.4 (5da689c313, 2019-01-14)">
  <metadata
     id="metadata15">
    <rdf:RDF>
      <cc:Work
         rdf:about="">
        <dc:format>image/svg+xml</dc:format>
        <dc:type
           rdf:resource="http://purl.org/dc/dcmitype/StillImage" />
        <dc:title></dc:title>
      </cc:Work>
    </rdf:RDF>
  </metadata>
  <sodipodi:namedview
     pagecolor="#ffffff"
     bordercolor="#666666"
     borderopacity="1"
     objecttolerance="10"
     gridtolerance="10"
     guidetolerance="10"
     inkscape:pageopacity="0"
     inkscape:pageshadow="2"
     inkscape:window-width="640"
     inkscape:window-height="480"
     id="namedview13"
     showgrid="false"
     inkscape:zoom="3.4766083"
     inkscape:cx="10.184548"
     inkscape:cy="41.205217"
     inkscape:current-layer="svg11" />
  <defs
     id="acyl-settings">
    <linearGradient
       id="acyl-gradient"
       x1="0%"
       x2="0%"
       y1="0%"
       y2="100%">
      <stop
         offset="100%"
         style="stop-color:#A0A0A0;stop-opacity:1.000000"
         id="stop2" />
    </linearGradient>
    <g
       id="acyl-filter" />
    <g
       id="acyl-drawing">
      <path
         d="m 46,36.644517 c 0,-1.581939 -1.323807,-2.855485 -2.98913,-2.855485 l -38.02174,0 C 3.323807,33.789032 2,35.062578 2,36.644517 2,38.226454 3.323807,39.5 4.98913,39.5 l 38.02174,0 C 44.676193,39.5 46,38.226454 46,36.644517 z M 45.222826,11.361589 c 0,-0.729913 -0.274895,-1.4633303 -0.836956,-2.0226344 -1.124124,-1.1186069 -2.941094,-1.1186069 -4.065218,0 L 24.179348,25.40105 8.038044,9.3389546 c -1.124124,-1.1186069 -2.941094,-1.1186069 -4.065218,0 -1.124123,1.1186074 -1.124123,2.9266614 0,4.0452694 l 17.815218,17.727793 c 0.646916,0.643741 1.551533,0.870559 2.391304,0.77336 0.850885,0.109512 1.735006,-0.120271 2.391304,-0.77336 L 44.38587,13.384224 c 0.562061,-0.559304 0.836956,-1.292721 0.836956,-2.022635 z"
         id="path-main" />
    </g>
  </defs>
  <g
     id="acyl-visual"
     style="fill:#4d4d4d">
    <use
       id="visible1"
       style="fill:#4d4d4d"
       xlink:href="#acyl-drawing" />
  </g>
</svg>
