<?xml version="1.0" encoding="UTF-8" standalone="no"?>
<svg
   xmlns:dc="http://purl.org/dc/elements/1.1/"
   xmlns:cc="http://creativecommons.org/ns#"
   xmlns:rdf="http://www.w3.org/1999/02/22-rdf-syntax-ns#"
   xmlns:svg="http://www.w3.org/2000/svg"
   xmlns="http://www.w3.org/2000/svg"
   xmlns:sodipodi="http://sodipodi.sourceforge.net/DTD/sodipodi-0.dtd"
   xmlns:inkscape="http://www.inkscape.org/namespaces/inkscape"
   height="48"
   width="48"
   version="1.1"
   id="svg2"
   sodipodi:docname="sensor.svg"
   inkscape:version="0.92.1 r15371">
  <metadata
     id="metadata9">
    <rdf:RDF>
      <cc:Work
         rdf:about="">
        <dc:format>image/svg+xml</dc:format>
        <dc:type
           rdf:resource="http://purl.org/dc/dcmitype/StillImage" />
        <dc:title></dc:title>
      </cc:Work>
    </rdf:RDF>
  </metadata>
  <sodipodi:namedview
     pagecolor="#ffffff"
     bordercolor="#666666"
     borderopacity="1"
     objecttolerance="10"
     gridtolerance="10"
     guidetolerance="10"
     inkscape:pageopacity="0"
     inkscape:pageshadow="2"
     inkscape:window-width="945"
     inkscape:window-height="1018"
     id="namedview7"
     showgrid="false"
     fit-margin-top="0"
     fit-margin-left="0"
     fit-margin-right="0"
     fit-margin-bottom="0"
     inkscape:zoom="10.727273"
     inkscape:cx="10.991525"
     inkscape:cy="19.186441"
     inkscape:window-x="965"
     inkscape:window-y="10"
     inkscape:window-maximized="0"
     inkscape:current-layer="svg2" />
  <defs
     id="defs10">
    <style
       type="text/css"
       id="current-color-scheme">
   .ColorScheme-Text { color:#5c616c; } .ColorScheme-Highlight { color:#5294e2; }
  </style>
  </defs>
  <g
     transform="matrix(3,0,0,3,-1644,1194.03)"
     id="g4">
    <path
       style="color:#5c616c;fill:#a0a0a0;fill-opacity:1"
       d="M 11,3 C 9.338,3 8,4.338 8,6 v 6.361 A 4,4 0 0 0 7,15 a 4,4 0 0 0 4,4 4,4 0 0 0 4,-4 4,4 0 0 0 -1,-2.639 V 6 C 14,4.338 12.662,3 11,3 Z m 0,2 c 0.554,0 1,0.446 1,1 v 7.27 A 2,2 0 0 1 13,15 2,2 0 0 1 11,17 2,2 0 0 1 9,15 2,2 0 0 1 10,13.271 V 6 c 0,-0.554 0.446,-1 1,-1 z"
       transform="translate(545,-401.01)"
       id="path6"
       class="ColorScheme-Text"
       inkscape:connector-curvature="0" />
  </g>
</svg>
