<?xml version="1.0" encoding="UTF-8" standalone="no"?>
<svg
   xmlns:dc="http://purl.org/dc/elements/1.1/"
   xmlns:cc="http://creativecommons.org/ns#"
   xmlns:rdf="http://www.w3.org/1999/02/22-rdf-syntax-ns#"
   xmlns:svg="http://www.w3.org/2000/svg"
   xmlns="http://www.w3.org/2000/svg"
   xmlns:sodipodi="http://sodipodi.sourceforge.net/DTD/sodipodi-0.dtd"
   xmlns:inkscape="http://www.inkscape.org/namespaces/inkscape"
   version="1.1"
   width="240"
   height="240"
   viewBox="0 0 240 240"
   id="svg4"
   sodipodi:docname="restart.svg"
   inkscape:version="0.92.4 (5da689c313, 2019-01-14)">
  <metadata
     id="metadata10">
    <rdf:RDF>
      <cc:Work
         rdf:about="">
        <dc:format>image/svg+xml</dc:format>
        <dc:type
           rdf:resource="http://purl.org/dc/dcmitype/StillImage" />
        <dc:title />
      </cc:Work>
    </rdf:RDF>
  </metadata>
  <defs
     id="defs8" />
  <sodipodi:namedview
     pagecolor="#ffffff"
     bordercolor="#666666"
     borderopacity="1"
     objecttolerance="10"
     gridtolerance="10"
     guidetolerance="10"
     inkscape:pageopacity="0"
     inkscape:pageshadow="2"
     inkscape:window-width="1321"
     inkscape:window-height="740"
     id="namedview6"
     showgrid="false"
     inkscape:pagecheckerboard="true"
     inkscape:zoom="22.250293"
     inkscape:cx="122.6399"
     inkscape:cy="235.23839"
     inkscape:window-x="45"
     inkscape:window-y="28"
     inkscape:window-maximized="0"
     inkscape:current-layer="svg4" />
  <path
     d="m 120.46684,40.246022 c 24.64954,0 48.12528,9.390303 65.73209,26.997105 36.38741,36.387393 36.38741,96.250543 0,132.637953 -21.12817,22.30196 -50.47285,30.51847 -78.64375,26.9971 l 5.86894,-23.47574 c 19.95439,2.34757 41.08255,-4.69514 56.34177,-19.95439 26.99712,-26.99709 26.99712,-71.60101 0,-99.771904 C 156.85425,70.76449 138.07364,63.721764 120.46684,63.721764 V 117.71598 L 61.777483,59.026618 120.46684,0.3372595 V 40.246022 M 53.560973,199.88108 C 23.042506,169.3626 18.347358,122.41112 39.475527,86.023724 l 17.606807,17.606796 c -12.911659,25.82333 -8.21651,58.68937 14.085446,79.81753 5.868937,5.86893 12.911659,10.56409 21.12817,14.08545 l -7.042724,23.47574 C 73.515354,216.3141 62.95127,209.27137 53.560973,199.88108 Z"
     id="path2"
     inkscape:connector-curvature="0"
     style="fill:#ffffff;stroke-width:11.73787117" />
</svg>
