<?xml version="1.0" encoding="UTF-8" standalone="no"?>
<svg
   xmlns:dc="http://purl.org/dc/elements/1.1/"
   xmlns:cc="http://creativecommons.org/ns#"
   xmlns:rdf="http://www.w3.org/1999/02/22-rdf-syntax-ns#"
   xmlns:svg="http://www.w3.org/2000/svg"
   xmlns="http://www.w3.org/2000/svg"
   xmlns:sodipodi="http://sodipodi.sourceforge.net/DTD/sodipodi-0.dtd"
   xmlns:inkscape="http://www.inkscape.org/namespaces/inkscape"
   height="16"
   width="16"
   version="1.1"
   id="svg8"
   sodipodi:docname="switch-new.svg"
   inkscape:version="0.92.4 (5da689c313, 2019-01-14)">
  <metadata
     id="metadata14">
    <rdf:RDF>
      <cc:Work
         rdf:about="">
        <dc:format>image/svg+xml</dc:format>
        <dc:type
           rdf:resource="http://purl.org/dc/dcmitype/StillImage" />
        <dc:title></dc:title>
      </cc:Work>
    </rdf:RDF>
  </metadata>
  <defs
     id="defs12" />
  <sodipodi:namedview
     pagecolor="#ffffff"
     bordercolor="#666666"
     borderopacity="1"
     objecttolerance="10"
     gridtolerance="10"
     guidetolerance="10"
     inkscape:pageopacity="0"
     inkscape:pageshadow="2"
     inkscape:window-width="640"
     inkscape:window-height="480"
     id="namedview10"
     showgrid="false"
     fit-margin-top="0"
     fit-margin-left="0"
     fit-margin-right="0"
     fit-margin-bottom="0"
     inkscape:zoom="4.9166667"
     inkscape:cx="-37.309972"
     inkscape:cy="17.605692"
     inkscape:current-layer="svg8" />
  <g
     transform="matrix(-0.32131179,-0.32131179,0.32131179,-0.32131179,8,23.423089)"
     id="g6"
     style="fill:#a0a0a0">
    <path
       d="m 25.5332,0.635265 a 2.16898,2.16898 0 0 0 -3.066,0 L 0.635265,22.4672 a 2.16898,2.16898 0 0 0 0,3.066 L 22.4672,47.3651 a 2.16898,2.16898 0 0 0 3.066,0 L 47.3651,25.5332 a 2.16898,2.16898 0 0 0 0,-3.066 z M 23.9989,5.23563 42.7634,24.0002 24.0002,42.7634 5.23563,23.9989 Z"
       overflow="visible"
       id="path2"
       inkscape:connector-curvature="0"
       style="overflow:visible;fill-rule:evenodd" />
    <path
       d="m 23.4426,36.9487 c 0.3385,0.3386 0.8902,0.337 1.2279,-7e-4 l 11.679,-11.679 c 0.6765,-0.6764 0.4479,-1.2281 -0.5089,-1.2288 -7.8563,-5e-4 -15.7122,5e-4 -23.569,-3e-4 -0.9552,-6e-4 -1.1846,0.5533 -0.509,1.229 z"
       id="path4"
       inkscape:connector-curvature="0" />
  </g>
</svg>
